<?xml version="1.0" standalone="no"?>
<!DOCTYPE svg PUBLIC "-//W3C//DTD SVG 20010904//EN"
 "http://www.w3.org/TR/2001/REC-SVG-20010904/DTD/svg10.dtd">
<svg version="1.0" xmlns="http://www.w3.org/2000/svg"
 width="700.000000pt" height="700.000000pt" viewBox="0 0 700.000000 700.000000"
 preserveAspectRatio="xMidYMid meet">
<metadata>
Created by potrace 1.11, written by Peter Selinger 2001-2013
</metadata>
<g transform="translate(0.000000,700.000000) scale(0.100000,-0.100000)"
fill="#000000" stroke="none">
<path d="M3328 6765 c-2 -2 -37 -6 -78 -9 -100 -8 -221 -23 -250 -31 -8 -2
-28 -7 -45 -9 -89 -15 -151 -29 -255 -57 -627 -166 -1199 -519 -1624 -1004
-33 -38 -67 -76 -74 -83 -7 -8 -25 -30 -40 -50 -15 -21 -30 -39 -33 -42 -16
-13 -133 -187 -193 -285 -37 -60 -71 -117 -76 -125 -24 -38 -132 -265 -169
-354 -34 -82 -113 -310 -126 -366 -2 -8 -13 -51 -24 -95 -11 -44 -22 -93 -25
-110 -2 -16 -9 -55 -15 -85 -15 -78 -19 -104 -36 -237 -16 -131 -22 -445 -10
-577 3 -33 7 -89 10 -123 6 -76 50 -346 59 -361 2 -4 7 -23 10 -42 3 -19 9
-46 12 -60 4 -14 7 -35 8 -47 0 -13 4 -23 7 -23 6 0 32 -98 27 -103 -1 -2 2
-10 9 -18 6 -8 17 -34 24 -59 7 -25 13 -47 14 -50 1 -3 6 -16 12 -30 6 -14 21
-49 33 -79 11 -30 30 -74 41 -98 11 -24 17 -49 13 -55 -4 -6 -3 -8 3 -5 13 8
47 -68 38 -84 -5 -7 -4 -10 2 -6 11 7 68 -98 66 -120 0 -7 3 -11 7 -8 11 7 22
-24 13 -37 -3 -7 -1 -8 5 -4 14 8 46 -50 36 -66 -4 -6 -3 -8 3 -5 14 9 66 -70
57 -85 -5 -7 -3 -8 6 -3 10 6 12 4 7 -8 -3 -9 -3 -16 1 -14 4 1 8 -1 9 -6 2
-4 11 -16 20 -26 26 -28 35 -40 73 -96 19 -27 40 -56 47 -63 7 -8 10 -18 7
-24 -4 -6 -2 -8 4 -4 6 3 21 -8 33 -26 30 -42 29 -42 94 -112 30 -33 51 -65
48 -70 -3 -6 -3 -8 2 -4 12 11 78 -59 69 -73 -4 -8 -3 -9 4 -5 13 8 69 -42 64
-57 -1 -5 1 -6 6 -3 12 7 93 -79 84 -89 -4 -5 -1 -5 6 -1 8 5 21 0 33 -13 11
-12 31 -28 44 -37 14 -9 22 -21 18 -27 -3 -5 -1 -7 4 -4 13 8 36 -17 25 -28
-4 -5 -1 -5 5 -1 16 9 85 -42 76 -57 -3 -6 -1 -7 6 -3 7 5 24 -6 43 -26 17
-18 28 -26 23 -18 -8 13 -7 13 11 0 10 -7 25 -21 32 -29 6 -8 18 -16 26 -17
23 -3 66 -36 60 -45 -3 -5 -10 -6 -16 -3 -7 4 -8 2 -4 -5 6 -9 11 -9 21 -1 15
13 39 4 30 -11 -3 -5 0 -6 7 -4 8 3 22 -2 33 -11 11 -8 14 -12 6 -8 -10 5 -12
3 -7 -5 5 -7 14 -10 22 -7 7 3 18 -3 23 -12 6 -9 11 -13 11 -9 0 9 91 -42 101
-56 3 -5 9 -8 13 -8 22 3 27 -1 21 -16 -5 -14 -3 -15 6 -6 15 15 39 6 39 -16
0 -14 2 -14 10 -1 9 14 14 7 11 -13 -1 -5 3 -6 8 -3 14 9 72 -15 64 -27 -3 -5
-1 -7 4 -4 14 9 74 -13 67 -24 -3 -5 2 -6 10 -3 9 3 16 1 16 -5 0 -6 6 -8 14
-5 7 3 20 -1 27 -8 8 -7 19 -13 24 -14 6 0 24 -6 40 -14 17 -7 36 -15 43 -17
6 -1 18 -5 25 -6 22 -7 52 -18 69 -28 10 -5 27 -9 38 -9 11 0 20 -5 20 -11 0
-5 5 -7 10 -4 6 3 10 2 10 -3 0 -5 11 -7 25 -4 19 3 27 -1 34 -19 9 -22 10
-22 11 -4 l1 20 9 -20 c5 -11 9 -14 9 -7 1 14 31 17 31 3 0 -5 6 -9 13 -8 6 0
23 -1 37 -2 21 -1 22 -3 10 -12 -11 -8 -8 -9 14 -4 19 4 32 2 37 -7 7 -10 9
-10 9 0 0 10 5 10 20 2 11 -6 20 -8 20 -4 0 3 7 1 15 -6 8 -7 15 -9 15 -5 0 4
7 2 15 -5 12 -10 15 -10 15 0 0 10 3 10 15 0 8 -6 20 -8 26 -4 7 4 9 3 6 -2
-3 -6 10 -11 29 -12 19 -1 49 -3 68 -4 19 -1 33 -5 30 -9 -2 -4 12 -6 32 -4
25 3 34 0 31 -9 -6 -14 21 -15 43 -1 9 5 15 4 18 -3 2 -7 8 -12 13 -12 6 0 8
4 5 8 -2 4 4 8 14 8 15 0 18 -5 14 -22 -3 -12 -2 -24 3 -27 5 -3 9 4 9 16 -1
21 3 22 93 22 92 0 130 -12 116 -36 -4 -5 -1 -9 5 -9 7 0 9 8 5 20 -6 20 -3
21 84 18 50 -2 91 0 91 4 0 4 7 5 16 1 13 -5 13 -7 2 -14 -10 -7 -10 -9 0 -9
7 0 15 7 19 16 5 13 7 13 14 2 5 -7 9 -8 9 -2 0 5 16 10 35 11 24 1 35 -3 35
-13 0 -17 16 -18 26 -2 4 7 3 8 -4 4 -7 -4 -12 -3 -12 2 0 6 7 12 15 16 9 3
15 0 15 -9 0 -8 8 -15 18 -15 14 0 15 2 2 10 -8 5 -13 10 -10 11 45 8 65 8 78
-3 13 -11 15 -11 10 3 -5 13 1 16 33 13 22 -2 39 2 39 7 0 6 7 3 16 -5 14 -14
34 -14 34 0 0 3 -4 3 -9 -1 -5 -3 -12 -2 -15 3 -2 4 5 8 17 9 12 1 33 4 45 7
19 4 23 2 17 -12 -5 -13 -1 -12 17 5 14 12 42 23 71 26 26 3 52 9 58 12 6 4 9
0 7 -10 -2 -11 4 -19 16 -21 14 -2 16 0 7 9 -6 6 -11 18 -11 26 1 13 4 12 17
-4 13 -16 15 -17 10 -2 -4 9 -3 17 2 17 16 0 20 -13 9 -34 -10 -19 -10 -20 6
-7 9 8 15 20 12 27 -7 19 5 24 21 9 8 -8 19 -15 26 -15 6 0 2 7 -9 15 -10 8
-17 15 -14 15 3 1 14 4 25 6 11 2 28 5 38 6 9 1 17 5 17 9 0 4 14 6 30 4 17
-2 28 0 25 4 -5 9 44 20 63 13 7 -2 10 -8 7 -13 -4 -5 2 -6 12 -2 16 6 17 5 3
-13 -14 -18 -14 -18 3 -5 18 14 18 15 -5 33 -22 17 -16 23 20 19 6 -1 12 2 12
7 0 5 12 12 26 15 18 3 24 1 20 -9 -3 -8 -2 -13 2 -13 20 3 23 -3 11 -18 -13
-16 -12 -17 3 -4 13 10 15 18 8 31 -6 12 -6 21 -1 25 5 3 12 -3 14 -12 3 -13
5 -12 6 5 0 13 5 21 10 17 5 -3 17 2 25 11 9 8 16 12 16 8 0 -3 7 -1 15 6 8 7
15 9 15 6 0 -4 10 -1 23 6 26 14 45 19 70 19 10 0 15 5 11 11 -4 7 -2 8 4 4 7
-4 12 -2 12 4 0 6 5 8 10 5 8 -5 8 -11 0 -20 -6 -8 -7 -16 -2 -19 15 -9 21 4
16 31 -4 24 -3 25 24 20 31 -6 62 6 43 17 -6 4 -11 2 -11 -3 0 -6 -4 -11 -10
-11 -5 0 -10 4 -10 9 0 17 28 19 56 5 27 -14 27 -14 11 4 -17 19 -16 20 36 46
30 14 59 26 65 26 7 0 12 5 12 11 0 5 5 7 11 3 13 -8 -2 -26 -26 -31 -8 -2
-22 -4 -31 -6 -9 -2 -22 -11 -29 -20 -7 -9 -15 -14 -18 -10 -4 3 -7 2 -7 -4 0
-6 13 -10 29 -9 16 0 27 4 24 9 -2 4 -9 5 -14 2 -5 -4 -9 -2 -9 3 0 17 13 22
28 9 13 -9 14 -9 8 1 -4 6 -4 12 1 13 30 3 48 9 51 19 2 5 9 7 15 4 8 -5 8 -2
0 7 -18 19 -16 29 7 29 10 0 24 -8 29 -17 6 -10 11 -14 11 -9 0 5 -8 18 -17
28 -10 11 -13 19 -8 18 21 -5 36 0 30 10 -3 6 -2 10 4 10 18 0 22 -19 5 -28
-15 -8 -15 -10 1 -16 15 -5 15 -9 4 -24 -13 -15 -12 -16 4 -3 13 10 14 17 6
27 -12 15 16 34 41 27 10 -3 9 0 -3 7 -9 6 -22 8 -27 5 -6 -3 -10 -2 -10 2 0
8 38 35 43 31 1 -2 9 3 17 9 74 62 76 63 98 47 19 -13 21 -13 16 1 -3 8 -11
15 -16 15 -6 0 1 9 15 20 30 24 44 25 44 4 0 -10 -7 -14 -19 -11 -10 3 -18 1
-18 -5 0 -5 10 -8 22 -6 17 2 23 10 23 28 0 21 13 40 29 41 3 0 24 18 47 40
44 42 68 40 70 -5 1 -17 2 -18 6 -3 3 10 -1 25 -8 34 -11 13 -8 20 21 45 19
16 45 38 57 49 20 18 22 18 38 3 9 -9 19 -13 23 -9 4 3 -1 11 -11 16 -24 14
-22 33 2 19 25 -13 31 -13 31 0 0 5 -3 9 -7 9 -22 -4 -22 3 -1 24 15 16 25 20
30 13 5 -7 8 -4 8 7 0 9 5 17 11 17 5 0 7 5 3 12 -4 6 -3 8 3 5 5 -4 16 5 23
18 7 14 18 25 23 25 6 0 3 -8 -6 -18 -10 -10 -17 -22 -17 -27 0 -4 9 4 21 19
11 14 18 30 14 35 -14 23 16 19 47 -6 21 -18 28 -21 18 -8 -8 11 -22 25 -30
32 -11 9 -12 12 -2 13 7 0 11 4 7 9 -3 5 4 12 15 16 11 3 19 11 17 17 -1 6 9
15 23 19 14 4 18 7 10 8 -11 1 -8 8 10 24 14 13 40 42 59 65 18 23 38 39 44
35 6 -4 8 0 5 9 -4 8 2 21 12 28 11 8 17 18 14 24 -3 6 1 3 9 -6 18 -23 28
-23 20 -1 -4 11 -3 14 5 9 7 -4 12 -2 12 4 0 7 -7 10 -15 6 -17 -6 -21 9 -4
20 6 3 16 1 22 -5 6 -6 15 -11 21 -11 5 0 2 6 -8 13 -17 13 -17 15 -1 46 16
32 17 32 36 15 10 -9 22 -14 26 -11 3 4 1 7 -5 7 -6 0 -17 10 -23 23 -11 21
-11 21 7 6 10 -9 26 -19 34 -23 8 -4 4 1 -10 12 -14 12 -21 24 -16 29 5 4 11
2 13 -4 3 -7 9 -13 15 -13 6 0 3 9 -7 20 -11 12 -13 20 -6 20 7 0 10 4 7 9 -3
5 1 12 10 15 8 3 13 10 10 14 -3 5 6 20 19 34 13 14 22 28 19 31 -2 2 2 10 11
17 8 7 15 18 15 24 1 20 41 59 63 61 21 2 39 35 18 35 -6 0 -8 -6 -5 -13 3 -8
-3 -13 -15 -13 -17 0 -17 2 -4 23 17 26 24 28 42 11 11 -11 12 -10 6 1 -6 10
-4 13 7 9 11 -5 15 0 14 15 -1 15 -7 21 -18 19 -13 -2 -2 26 41 112 32 64 56
118 52 122 -3 4 2 4 12 1 28 -10 41 2 23 22 -11 12 -12 20 -5 31 9 12 10 12 5
-3 -3 -10 -2 -15 3 -12 6 3 9 19 9 36 -1 16 4 35 10 41 7 7 12 20 12 30 0 10
4 18 10 18 5 0 7 -6 4 -14 -3 -8 3 -19 15 -25 17 -10 20 -9 15 4 -3 8 -11 12
-17 8 -6 -4 -8 0 -4 9 3 9 0 21 -6 28 -9 10 -9 11 2 5 11 -6 13 -4 8 10 -5 11
1 31 12 51 11 19 18 41 15 49 -4 8 -1 15 6 15 6 0 8 -5 4 -12 -6 -10 -4 -10 7
-2 8 6 22 10 31 9 10 -2 21 2 25 7 3 7 1 8 -5 4 -7 -4 -12 -1 -12 6 0 8 -3 9
-8 3 -4 -6 -12 -11 -19 -10 -16 0 -30 15 -14 15 7 0 10 4 7 8 -7 12 15 82 27
82 5 0 6 7 3 16 -3 9 -3 21 1 27 4 7 9 18 10 25 2 6 5 20 7 30 3 9 5 23 5 30
1 6 11 12 24 12 17 0 19 2 7 9 -8 6 -18 7 -22 5 -4 -3 -5 2 -2 11 5 12 10 13
20 4 15 -12 34 -4 33 14 0 9 -2 9 -6 0 -7 -18 -16 -16 -31 8 -12 19 -11 20 7
14 10 -3 22 -2 25 3 3 6 0 9 -7 8 -18 -2 -20 5 -12 56 6 37 10 45 24 41 11 -4
10 -1 -4 10 -11 9 -15 17 -9 17 7 0 10 13 9 30 -1 16 1 27 5 25 5 -3 10 1 13
7 3 9 10 7 21 -7 17 -20 17 -19 6 3 -7 14 -17 21 -26 18 -8 -3 -14 -2 -14 3 0
16 13 20 31 10 15 -7 19 -7 17 3 -2 7 2 12 8 11 6 -1 11 5 11 12 0 10 -4 12
-12 5 -7 -5 -16 -6 -20 -2 -5 4 -5 2 -1 -5 4 -8 -1 -11 -14 -10 -25 2 -25 9 0
25 12 7 18 17 15 22 -3 5 3 18 15 30 11 11 16 20 11 20 -14 0 -41 -41 -35 -52
3 -4 0 -8 -5 -8 -6 0 -9 10 -7 23 3 12 5 22 6 22 1 0 11 101 13 132 0 12 6 19
12 15 5 -3 4 2 -4 11 -7 9 -9 17 -3 17 11 0 21 21 28 58 2 12 0 22 -6 22 -6 0
-8 -5 -5 -10 3 -6 2 -10 -3 -10 -5 0 -9 39 -8 89 1 56 5 87 11 83 6 -3 4 2 -4
11 -7 9 -9 17 -4 17 5 0 18 7 29 16 18 15 18 15 -2 5 -33 -16 -36 -2 -6 25 15
13 22 24 16 24 -7 0 -14 -7 -18 -15 -11 -30 -21 -14 -23 35 -1 32 2 48 9 44 7
-4 7 0 0 12 -5 11 -8 34 -6 52 2 18 0 31 -4 28 -4 -2 -8 12 -8 31 -1 23 1 30
7 22 7 -11 9 -10 9 3 0 9 -4 18 -9 20 -5 2 -12 27 -15 56 -4 35 -2 51 4 47 6
-4 7 -11 4 -17 -4 -7 -2 -8 5 -4 9 6 9 11 1 21 -7 8 -8 20 -4 27 6 10 5 10 -8
0 -14 -11 -16 -11 -14 0 1 7 6 19 10 27 6 10 5 12 -2 7 -7 -4 -12 -2 -12 3 0
6 5 11 10 11 6 0 10 5 10 11 0 5 -4 7 -10 4 -5 -3 -10 2 -11 12 0 10 -2 29 -5
42 -3 18 -1 22 9 15 7 -5 5 -2 -5 8 -21 19 -23 34 -5 41 6 3 3 6 -7 6 -11 1
-17 4 -14 7 4 3 2 19 -3 36 -5 18 -5 36 0 42 5 6 5 20 0 31 -5 14 -8 15 -9 5
-1 -10 -4 -9 -10 5 -14 32 -11 45 8 46 13 0 11 3 -6 10 -14 5 -22 16 -20 26 1
10 0 23 -4 28 -15 24 -37 117 -31 133 3 9 2 14 -2 9 -5 -4 -18 21 -30 55 -12
35 -27 76 -33 91 -7 16 -8 26 -3 22 5 -3 13 -1 16 5 4 6 3 10 -2 9 -17 -3 -33
1 -31 9 1 4 -4 18 -11 31 -11 19 -11 22 1 15 10 -6 11 -5 1 8 -7 8 -10 18 -6
21 3 4 2 7 -4 7 -17 0 -35 50 -23 65 8 10 6 13 -6 11 -9 0 -19 5 -22 13 -3 10
0 12 12 8 10 -4 15 -3 11 3 -3 6 -13 10 -22 10 -10 0 -13 6 -9 16 3 8 2 13 -3
10 -8 -6 -58 92 -54 106 2 4 -1 8 -6 8 -9 0 -35 54 -31 65 1 4 -8 15 -20 25
-12 11 -19 24 -15 29 3 6 2 11 -4 11 -15 0 -43 58 -35 72 4 6 3 8 -4 4 -16
-10 -27 15 -11 26 11 7 11 8 -1 6 -9 -2 -17 2 -19 7 -1 6 -9 14 -17 18 -8 4
-14 15 -14 22 0 8 -5 15 -11 15 -5 0 -7 5 -4 10 3 6 1 10 -5 10 -7 0 -9 7 -6
17 4 10 4 14 0 10 -10 -10 -55 46 -49 61 3 7 1 11 -4 8 -5 -3 -20 11 -34 32
-14 20 -40 53 -57 72 -49 55 -70 87 -62 94 4 4 2 6 -4 4 -13 -3 -64 47 -64 63
0 5 -4 9 -10 9 -5 0 -10 7 -10 16 0 8 -4 13 -9 10 -12 -8 -34 21 -26 33 4 7
-1 8 -11 4 -14 -5 -16 -3 -11 11 4 9 3 15 -2 12 -4 -3 -35 21 -67 52 -32 32
-86 82 -119 112 -33 30 -59 58 -57 62 1 4 -1 7 -5 6 -14 -4 -53 26 -53 40 0 7
-4 11 -8 8 -5 -3 -34 15 -66 40 -63 50 -254 182 -301 208 -16 9 -48 28 -70 42
-22 14 -48 27 -57 31 -10 3 -15 10 -11 16 3 6 1 7 -5 3 -12 -7 -72 19 -83 36
-3 5 -10 10 -15 10 -5 0 -38 13 -73 29 -35 16 -68 29 -73 29 -5 0 -6 5 -3 10
4 6 3 10 -2 9 -24 -4 -43 2 -37 13 5 7 3 8 -5 4 -12 -8 -29 -3 -111 32 -57 23
-71 28 -155 56 -74 24 -212 61 -264 71 -13 2 -30 6 -39 9 -9 3 -33 8 -52 11
-19 3 -71 12 -115 20 -44 8 -105 17 -135 21 -30 3 -75 8 -100 11 -50 6 -517
13 -522 8z m3522 -3525 c-6 -11 -12 -20 -14 -20 -2 0 -2 9 1 20 3 11 9 20 15
20 5 0 4 -9 -2 -20z m-275 -1130 c3 -5 2 -10 -4 -10 -5 0 -13 5 -16 10 -3 6
-2 10 4 10 5 0 13 -4 16 -10z m-124 -270 c-8 -4 -21 -5 -30 -2 -12 5 -10 8 9
12 29 8 40 3 21 -10z"/>
<path d="M6393 5175 c0 -8 4 -12 9 -9 5 3 6 10 3 15 -9 13 -12 11 -12 -6z"/>
<path d="M6506 4958 c3 -5 10 -6 15 -3 13 9 11 12 -6 12 -8 0 -12 -4 -9 -9z"/>
<path d="M6586 4878 c3 -5 10 -6 15 -3 13 9 11 12 -6 12 -8 0 -12 -4 -9 -9z"/>
<path d="M6670 4580 c0 -5 5 -10 11 -10 5 0 7 5 4 10 -3 6 -8 10 -11 10 -2 0
-4 -4 -4 -10z"/>
<path d="M6690 4520 c0 -5 5 -10 11 -10 5 0 7 5 4 10 -3 6 -8 10 -11 10 -2 0
-4 -4 -4 -10z"/>
<path d="M6735 4380 c-3 -5 -1 -10 4 -10 6 0 11 5 11 10 0 6 -2 10 -4 10 -3 0
-8 -4 -11 -10z"/>
<path d="M6793 4130 c5 -29 13 -33 13 -5 0 14 -4 25 -8 25 -4 0 -7 -9 -5 -20z"/>
<path d="M6826 4098 c3 -5 10 -6 15 -3 13 9 11 12 -6 12 -8 0 -12 -4 -9 -9z"/>
<path d="M6856 3913 c-6 -14 -5 -15 5 -6 7 7 10 15 7 18 -3 3 -9 -2 -12 -12z"/>
<path d="M6875 3880 c-3 -5 -1 -10 4 -10 6 0 11 5 11 10 0 6 -2 10 -4 10 -3 0
-8 -4 -11 -10z"/>
<path d="M6846 3798 c8 -15 17 -28 20 -28 2 0 0 9 -6 20 -6 11 -9 24 -6 29 3
4 -1 8 -9 8 -12 0 -12 -5 1 -29z"/>
<path d="M6850 3720 c0 -5 5 -10 10 -10 6 0 10 5 10 10 0 6 -4 10 -10 10 -5 0
-10 -4 -10 -10z"/>
<path d="M6860 3638 c0 -4 4 -8 9 -8 6 0 12 4 15 8 3 5 -1 9 -9 9 -8 0 -15 -4
-15 -9z"/>
<path d="M6879 3613 c-13 -16 -12 -17 4 -4 9 7 17 15 17 17 0 8 -8 3 -21 -13z"/>
<path d="M6850 3558 c0 -4 9 -7 20 -5 29 5 33 13 5 13 -14 0 -25 -4 -25 -8z"/>
<path d="M6861 3413 c-1 -17 16 -25 25 -12 4 7 3 9 -4 5 -5 -3 -13 0 -15 6 -4
9 -6 10 -6 1z"/>
<path d="M6899 3393 c-13 -16 -12 -17 4 -4 16 13 21 21 13 21 -2 0 -10 -8 -17
-17z"/>
<path d="M6860 3373 c0 -6 8 -17 18 -24 16 -13 16 -13 2 6 -8 11 -16 22 -17
24 -2 2 -3 0 -3 -6z"/>
<path d="M6853 3335 c0 -8 4 -12 9 -9 5 3 6 10 3 15 -9 13 -12 11 -12 -6z"/>
<path d="M6874 3319 c-3 -6 -2 -15 3 -20 5 -5 9 -1 9 11 0 23 -2 24 -12 9z"/>
<path d="M6870 3237 c0 -2 6 -10 14 -16 11 -9 16 -9 22 1 4 7 4 10 -1 6 -4 -4
-14 -3 -22 3 -7 6 -13 9 -13 6z"/>
<path d="M6846 3158 c3 -4 9 -8 15 -8 5 0 9 4 9 8 0 5 -7 9 -15 9 -8 0 -12 -4
-9 -9z"/>
<path d="M6890 3140 c0 -5 5 -10 11 -10 5 0 7 5 4 10 -3 6 -8 10 -11 10 -2 0
-4 -4 -4 -10z"/>
<path d="M6840 3134 c0 -6 7 -19 16 -30 14 -18 14 -18 3 6 -14 31 -19 36 -19
24z"/>
<path d="M6834 3075 c0 -13 3 -22 7 -19 8 4 6 30 -2 38 -3 3 -5 -5 -5 -19z"/>
<path d="M6860 3026 c0 -2 8 -10 18 -17 15 -13 16 -12 3 4 -13 16 -21 21 -21
13z"/>
<path d="M6807 2876 c-4 -10 -1 -13 9 -9 7 3 14 9 14 14 0 14 -17 10 -23 -5z"/>
<path d="M6839 2848 c-5 -18 -6 -38 -1 -34 7 8 12 36 6 36 -2 0 -4 -1 -5 -2z"/>
<path d="M6793 2785 c0 -29 12 -41 23 -24 4 7 3 9 -4 5 -7 -4 -10 2 -9 14 1
13 6 19 15 15 7 -2 10 0 7 5 -12 19 -32 10 -32 -15z"/>
<path d="M6816 2733 c-6 -14 -5 -15 5 -6 7 7 10 15 7 18 -3 3 -9 -2 -12 -12z"/>
<path d="M6810 2699 c0 -5 5 -7 10 -4 6 3 10 8 10 11 0 2 -4 4 -10 4 -5 0 -10
-5 -10 -11z"/>
<path d="M6800 2655 c-9 -11 -10 -19 -3 -26 8 -8 11 -6 10 7 -1 11 4 18 11 16
8 -1 11 2 7 8 -8 13 -10 13 -25 -5z"/>
<path d="M6745 2619 c-5 -8 -4 -11 0 -6 5 4 16 -5 26 -20 16 -25 18 -25 16 -5
0 11 -3 19 -6 17 -2 -3 -9 3 -16 12 -10 13 -13 14 -20 2z"/>
<path d="M6735 2580 c-3 -5 -1 -10 4 -10 6 0 11 5 11 10 0 6 -2 10 -4 10 -3 0
-8 -4 -11 -10z"/>
<path d="M6720 2541 c0 -6 4 -13 10 -16 6 -3 7 1 4 9 -7 18 -14 21 -14 7z"/>
<path d="M6755 2510 c-4 -6 -11 -7 -17 -4 -7 4 -8 2 -4 -5 6 -9 11 -9 22 0 14
11 18 19 10 19 -3 0 -8 -5 -11 -10z"/>
<path d="M6708 2468 c5 -5 16 -8 23 -6 8 3 3 7 -10 11 -17 4 -21 3 -13 -5z"/>
<path d="M6690 2440 c0 -5 5 -10 10 -10 6 0 10 5 10 10 0 6 -4 10 -10 10 -5 0
-10 -4 -10 -10z"/>
<path d="M6691 2370 c0 -8 4 -22 9 -30 12 -18 12 -2 0 25 -6 13 -9 15 -9 5z"/>
<path d="M6660 2335 c-10 -12 -9 -16 4 -21 9 -4 20 -4 23 0 4 3 -1 6 -11 6 -9
0 -14 5 -11 10 4 6 11 7 17 4 7 -4 8 -2 4 4 -9 15 -11 15 -26 -3z"/>
<path d="M6646 2297 c3 -10 9 -15 12 -12 3 3 0 11 -7 18 -10 9 -11 8 -5 -6z"/>
<path d="M6682 2278 c-15 -15 -15 -28 -1 -28 5 0 8 4 4 9 -3 6 3 14 12 20 10
6 13 11 8 11 -6 0 -16 -5 -23 -12z"/>
<path d="M6602 2190 c-12 -19 -11 -20 8 -8 11 7 20 16 20 20 0 15 -15 8 -28
-12z"/>
<path d="M6634 2175 c-4 -8 -11 -12 -17 -8 -6 3 -7 1 -3 -5 9 -15 33 -5 33 13
0 19 -6 19 -13 0z"/>
<path d="M6595 2120 c3 -5 8 -10 11 -10 2 0 4 5 4 10 0 6 -5 10 -11 10 -5 0
-7 -4 -4 -10z"/>
<path d="M6548 2073 c0 -5 -2 -12 -3 -18 -2 -5 -3 -16 -4 -23 0 -7 -6 -10 -13
-6 -7 4 -8 3 -4 -4 4 -7 3 -12 -2 -12 -19 0 -23 -34 -5 -49 16 -15 16 -15 4 1
-11 15 -9 22 13 49 14 17 23 35 20 41 -4 6 0 14 7 19 10 6 11 9 2 9 -7 0 -14
-3 -15 -7z"/>
<path d="M6574 2058 c-4 -7 -4 -10 1 -6 4 4 15 2 24 -5 14 -11 14 -10 2 6 -16
20 -18 21 -27 5z"/>
<path d="M6586 2018 c3 -5 10 -6 15 -3 13 9 11 12 -6 12 -8 0 -12 -4 -9 -9z"/>
<path d="M6550 2006 c0 -2 7 -7 16 -10 8 -3 12 -2 9 4 -6 10 -25 14 -25 6z"/>
<path d="M6553 1983 c4 -3 1 -13 -6 -22 -11 -14 -10 -14 5 -2 16 12 16 31 1
31 -4 0 -3 -3 0 -7z"/>
<path d="M6485 1940 c-3 -5 -2 -10 4 -10 5 0 13 5 16 10 3 6 2 10 -4 10 -5 0
-13 -4 -16 -10z"/>
<path d="M6510 1925 c0 -5 5 -17 10 -25 5 -8 10 -10 10 -5 0 6 -5 17 -10 25
-5 8 -10 11 -10 5z"/>
<path d="M6473 1890 c2 -11 6 -22 10 -26 3 -4 4 3 2 16 -3 16 0 20 11 16 9 -3
12 -1 9 4 -11 18 -35 11 -32 -10z"/>
<path d="M6506 1858 c3 -5 10 -6 15 -3 13 9 11 12 -6 12 -8 0 -12 -4 -9 -9z"/>
<path d="M6373 1743 c-10 -10 -14 -15 -9 -10 6 4 15 7 21 7 5 0 -6 -15 -26
-33 -19 -17 -33 -31 -31 -30 3 1 14 -2 26 -8 20 -10 20 -10 2 5 -19 16 -17 18
14 20 8 1 15 6 15 11 0 17 16 36 26 30 5 -3 6 1 3 9 -8 21 -17 20 -41 -1z"/>
<path d="M6399 1693 c-13 -16 -12 -17 4 -4 16 13 21 21 13 21 -2 0 -10 -8 -17
-17z"/>
<path d="M6386 1658 c3 -5 10 -6 15 -3 13 9 11 12 -6 12 -8 0 -12 -4 -9 -9z"/>
<path d="M6303 1634 l-28 -26 35 23 c46 29 45 29 32 29 -6 0 -24 -12 -39 -26z"/>
<path d="M6359 1648 c-5 -18 -6 -38 -1 -34 7 8 12 36 6 36 -2 0 -4 -1 -5 -2z"/>
<path d="M6300 1605 c-7 -9 -8 -15 -2 -15 5 0 12 7 16 15 3 8 4 15 2 15 -2 0
-9 -7 -16 -15z"/>
<path d="M6274 1567 c1 -11 8 -22 16 -24 13 -4 13 -3 0 6 -12 9 -13 13 -2 20
11 7 11 9 -1 14 -10 4 -14 -1 -13 -16z"/>
<path d="M6196 1495 c-3 -9 -2 -14 3 -10 5 3 11 -1 14 -7 2 -7 7 -11 10 -8 3
3 0 13 -8 23 -11 16 -13 16 -19 2z"/>
<path d="M6190 1460 c0 -6 7 -10 15 -10 8 0 15 2 15 4 0 2 -7 6 -15 10 -8 3
-15 1 -15 -4z"/>
<path d="M6236 1462 c-3 -5 1 -9 9 -9 8 0 12 4 9 9 -3 4 -7 8 -9 8 -2 0 -6 -4
-9 -8z"/>
<path d="M6197 1416 c-10 -8 -14 -16 -10 -19 5 -3 14 3 21 14 14 22 13 23 -11
5z"/>
<path d="M6129 1371 c6 -10 7 -22 3 -26 -4 -5 -1 -5 6 -1 9 5 9 12 2 27 -6 10
-13 19 -16 19 -2 0 0 -8 5 -19z"/>
<path d="M6111 1354 c0 -11 3 -14 6 -6 3 7 2 16 -1 19 -3 4 -6 -2 -5 -13z"/>
<path d="M6085 1324 c9 -9 19 -13 23 -10 3 4 0 11 -8 16 -24 15 -33 11 -15 -6z"/>
<path d="M6153 1315 c0 -8 4 -12 9 -9 5 3 6 10 3 15 -9 13 -12 11 -12 -6z"/>
<path d="M6073 1308 c4 -11 0 -21 -11 -27 -13 -7 -11 -9 10 -8 23 2 25 5 16
22 -14 27 -23 34 -15 13z"/>
<path d="M6040 1295 c-11 -13 -10 -14 4 -9 9 3 16 10 16 15 0 13 -6 11 -20 -6z"/>
<path d="M1035 1281 c-3 -5 -2 -12 3 -15 5 -3 9 1 9 9 0 17 -3 19 -12 6z"/>
<path d="M6008 1256 c-11 -8 -14 -17 -7 -27 7 -12 9 -11 9 3 0 9 6 18 13 21 6
2 10 7 7 10 -3 3 -13 0 -22 -7z"/>
<path d="M6041 1244 c0 -11 3 -14 6 -6 3 7 2 16 -1 19 -3 4 -6 -2 -5 -13z"/>
<path d="M6076 1247 c3 -10 9 -15 12 -12 3 3 0 11 -7 18 -10 9 -11 8 -5 -6z"/>
<path d="M5956 1196 c3 -7 -2 -16 -10 -19 -18 -7 -22 -27 -5 -27 5 0 8 4 5 9
-3 5 1 11 9 15 16 6 21 36 5 36 -5 0 -7 -6 -4 -14z"/>
<path d="M5982 1205 c7 -8 58 -13 62 -7 2 4 -12 8 -31 9 -19 1 -34 0 -31 -2z"/>
<path d="M5955 1139 c-11 -16 -1 -19 13 -3 7 8 8 14 3 14 -5 0 -13 -5 -16 -11z"/>
<path d="M5885 1130 c6 -8 10 -19 10 -24 0 -5 6 -10 13 -12 7 -1 8 0 2 3 -5 2
-8 8 -5 13 3 4 -3 14 -12 21 -15 12 -16 12 -8 -1z"/>
<path d="M5863 1072 c-7 -13 -8 -23 -1 -33 8 -11 9 -11 5 3 -6 19 15 42 28 30
5 -4 5 -1 1 6 -10 17 -19 15 -33 -6z"/>
<path d="M1267 1059 c7 -7 15 -10 18 -7 3 3 -2 9 -12 12 -14 6 -15 5 -6 -5z"/>
<path d="M5821 1051 c-7 -5 -12 -14 -9 -21 6 -18 35 -21 35 -4 0 10 -4 11 -14
3 -16 -14 -17 3 -1 19 14 14 9 15 -11 3z"/>
<path d="M5775 1010 c3 -5 8 -10 11 -10 2 0 4 5 4 10 0 6 -5 10 -11 10 -5 0
-7 -4 -4 -10z"/>
<path d="M5696 955 c-3 -8 0 -17 6 -21 6 -4 8 -3 4 4 -3 5 -1 12 6 14 8 3 9 6
1 11 -6 4 -13 0 -17 -8z"/>
<path d="M5764 958 c-3 -4 5 -5 17 -3 30 6 36 14 9 12 -12 -1 -24 -5 -26 -9z"/>
<path d="M5665 929 c-4 -6 -4 -13 -1 -16 3 -4 6 -1 6 6 0 7 5 9 12 5 7 -4 8
-3 4 4 -9 15 -13 15 -21 1z"/>
<path d="M5721 924 c0 -11 3 -14 6 -6 3 7 2 16 -1 19 -3 4 -6 -2 -5 -13z"/>
<path d="M5753 925 c0 -8 4 -12 9 -9 5 3 6 10 3 15 -9 13 -12 11 -12 -6z"/>
<path d="M5635 910 c-3 -5 -3 -15 1 -22 5 -8 2 -9 -10 -5 -10 4 -15 3 -11 -3
12 -19 33 -10 33 15 0 27 -3 31 -13 15z"/>
<path d="M5672 901 c-11 -6 -10 -10 4 -15 9 -3 19 -4 22 -1 3 3 0 5 -7 5 -7 0
-9 5 -6 10 7 12 4 12 -13 1z"/>
<path d="M1495 860 c3 -5 8 -10 11 -10 2 0 4 5 4 10 0 6 -5 10 -11 10 -5 0 -7
-4 -4 -10z"/>
<path d="M5554 842 c-25 -21 -48 -61 -40 -70 3 -3 6 0 6 7 0 7 5 9 12 5 7 -5
8 -3 3 5 -4 7 2 22 16 37 17 18 25 21 36 12 11 -8 12 -7 7 6 -8 20 -14 20 -40
-2z"/>
<path d="M5562 818 c-7 -7 -12 -17 -12 -22 0 -6 5 -3 11 8 9 15 13 16 20 5 6
-9 9 -10 9 -2 0 18 -15 24 -28 11z"/>
<path d="M5489 798 c-7 -21 -3 -48 7 -52 10 -4 11 1 4 18 -5 13 -6 27 -3 30 4
3 3 6 0 6 -4 0 -7 -1 -8 -2z"/>
<path d="M5570 779 c0 -5 5 -7 10 -4 6 3 10 8 10 11 0 2 -4 4 -10 4 -5 0 -10
-5 -10 -11z"/>
<path d="M5525 760 c-3 -6 1 -7 9 -4 18 7 21 14 7 14 -6 0 -13 -4 -16 -10z"/>
<path d="M5478 723 c7 -3 16 -2 19 1 4 3 -2 6 -13 5 -11 0 -14 -3 -6 -6z"/>
<path d="M5361 702 c-7 -14 -6 -19 4 -19 8 0 11 7 7 16 -5 14 -4 14 14 1 18
-14 18 -14 5 3 -17 21 -18 21 -30 -1z"/>
<path d="M5323 673 c-15 -5 -17 -23 -4 -23 5 0 11 7 15 15 3 8 4 15 3 14 -1 0
-8 -3 -14 -6z"/>
<path d="M5393 665 c0 -8 4 -12 9 -9 5 3 6 10 3 15 -9 13 -12 11 -12 -6z"/>
<path d="M5350 666 c0 -2 7 -7 16 -10 8 -3 12 -2 9 4 -6 10 -25 14 -25 6z"/>
<path d="M5274 649 c-4 -7 -3 -9 4 -5 5 3 13 0 15 -6 4 -9 6 -10 6 -1 1 17
-16 25 -25 12z"/>
<path d="M5306 623 c-6 -14 -5 -15 5 -6 7 7 10 15 7 18 -3 3 -9 -2 -12 -12z"/>
<path d="M1835 609 c-4 -6 -5 -12 -2 -15 2 -3 7 2 10 11 7 17 1 20 -8 4z"/>
<path d="M1896 587 c3 -10 9 -15 12 -12 3 3 0 11 -7 18 -10 9 -11 8 -5 -6z"/>
<path d="M5286 582 c-3 -5 1 -9 9 -9 8 0 12 4 9 9 -3 4 -7 8 -9 8 -2 0 -6 -4
-9 -8z"/>
<path d="M5106 503 c-6 -14 -5 -15 5 -6 7 7 10 15 7 18 -3 3 -9 -2 -12 -12z"/>
<path d="M4993 455 c-3 -9 -3 -18 -1 -21 3 -3 8 4 11 16 6 23 -1 27 -10 5z"/>
<path d="M4930 456 c0 -2 8 -10 18 -17 15 -13 16 -12 3 4 -13 16 -21 21 -21
13z"/>
<path d="M2270 409 c0 -5 -6 -7 -12 -3 -7 4 -9 3 -5 -1 13 -15 36 -14 30 1 -6
17 -13 18 -13 3z"/>
<path d="M4830 396 c0 -8 7 -17 16 -20 13 -5 14 -4 6 7 -7 8 -9 17 -5 20 3 4
1 7 -5 7 -7 0 -12 -6 -12 -14z"/>
<path d="M4877 403 c-4 -3 -7 -11 -7 -17 0 -6 5 -5 12 2 6 6 9 14 7 17 -3 3
-9 2 -12 -2z"/>
<path d="M4771 384 c6 -7 16 -11 21 -8 11 7 3 17 -18 20 -12 2 -13 -1 -3 -12z"/>
<path d="M2355 369 c-4 -6 -5 -12 -2 -15 2 -3 7 2 10 11 7 17 1 20 -8 4z"/>
<path d="M4735 369 c-4 -6 -4 -13 -1 -16 3 -4 6 -1 6 5 0 7 5 12 11 12 5 0 8
-4 5 -8 -3 -5 1 -9 9 -9 11 0 12 4 4 14 -14 16 -26 17 -34 2z"/>
<path d="M2315 361 c-3 -5 -2 -12 3 -15 5 -3 9 1 9 9 0 17 -3 19 -12 6z"/>
<path d="M4795 359 c-3 -4 2 -6 10 -5 21 3 28 13 10 13 -9 0 -18 -4 -20 -8z"/>
<path d="M2410 345 c0 -5 5 -17 10 -25 5 -8 10 -10 10 -5 0 6 -5 17 -10 25 -5
8 -10 11 -10 5z"/>
<path d="M2474 326 c1 -8 5 -18 8 -22 4 -3 5 1 4 10 -1 8 -5 18 -8 22 -4 3 -5
-1 -4 -10z"/>
<path d="M4615 331 c3 -5 -3 -11 -12 -13 -16 -3 -15 -5 2 -9 16 -5 21 -1 22
12 1 11 -3 19 -8 19 -6 0 -8 -4 -4 -9z"/>
<path d="M4690 322 c0 -4 10 -9 22 -9 18 -2 20 0 8 7 -18 12 -30 13 -30 2z"/>
<path d="M2504 303 c4 -4 16 -8 28 -10 28 -4 18 6 -12 12 -12 2 -20 1 -16 -2z"/>
<path d="M2595 291 c-3 -5 -2 -12 3 -15 5 -3 9 1 9 9 0 17 -3 19 -12 6z"/>
<path d="M4516 272 c-11 -15 -13 -21 -6 -14 17 15 34 16 24 0 -4 -6 -3 -8 4
-5 5 4 8 16 5 27 -6 24 -4 25 -27 -8z"/>
<path d="M4450 281 c0 -6 5 -11 11 -11 5 0 8 -4 5 -8 -3 -5 1 -9 8 -9 7 0 13
6 13 14 0 7 -3 11 -5 8 -3 -3 -11 0 -19 6 -9 9 -13 8 -13 0z"/>
<path d="M4403 273 c-15 -5 -17 -23 -4 -23 5 0 11 7 15 15 3 8 4 15 3 14 -1 0
-8 -3 -14 -6z"/>
<path d="M4435 260 c3 -5 2 -10 -3 -10 -6 0 -13 -8 -16 -17 -6 -15 -5 -15 13
1 18 16 20 36 5 36 -3 0 -2 -4 1 -10z"/>
<path d="M2693 247 c0 -8 6 -14 14 -14 9 0 10 4 2 14 -6 7 -12 13 -14 13 -1 0
-2 -6 -2 -13z"/>
<path d="M2817 233 c-3 -5 6 -9 20 -10 19 -1 22 1 12 8 -17 11 -26 11 -32 2z"/>
<path d="M4220 219 c0 -5 5 -7 10 -4 6 3 10 8 10 11 0 2 -4 4 -10 4 -5 0 -10
-5 -10 -11z"/>
<path d="M4142 200 c0 -14 2 -19 5 -12 2 6 2 18 0 25 -3 6 -5 1 -5 -13z"/>
<path d="M4165 209 c-11 -16 -1 -19 13 -3 7 8 8 14 3 14 -5 0 -13 -5 -16 -11z"/>
<path d="M4200 211 c0 -10 19 -25 25 -20 1 2 -3 10 -11 17 -8 7 -14 8 -14 3z"/>
<path d="M2910 200 c0 -5 6 -9 13 -7 6 1 11 -4 9 -11 -1 -8 2 -11 8 -7 8 5 7
11 -1 21 -13 16 -29 18 -29 4z"/>
<path d="M4065 187 c-14 -11 -15 -16 -5 -22 9 -6 11 -4 5 5 -6 10 -3 12 13 8
15 -4 19 -2 15 8 -6 17 -5 17 -28 1z"/>
<path d="M3110 180 c0 -5 5 -10 10 -10 6 0 10 5 10 10 0 6 -4 10 -10 10 -5 0
-10 -4 -10 -10z"/>
<path d="M4195 170 c10 -11 20 -20 23 -20 3 0 -3 9 -13 20 -10 11 -20 20 -23
20 -3 0 3 -9 13 -20z"/>
<path d="M3873 163 c0 -10 4 -10 16 -1 9 7 18 13 20 15 2 1 -5 1 -16 0 -11 0
-20 -7 -20 -14z"/>
<path d="M3937 166 c-4 -9 -1 -15 6 -13 7 1 11 -4 9 -11 -1 -8 2 -11 8 -7 8 5
7 12 -2 23 -7 10 -13 18 -14 20 -1 2 -4 -4 -7 -12z"/>
<path d="M3970 171 c0 -6 4 -13 10 -16 6 -3 7 1 4 9 -7 18 -14 21 -14 7z"/>
<path d="M3056 158 c3 -5 10 -6 15 -3 13 9 11 12 -6 12 -8 0 -12 -4 -9 -9z"/>
<path d="M3190 160 c0 -5 5 -10 11 -10 5 0 7 5 4 10 -3 6 -8 10 -11 10 -2 0
-4 -4 -4 -10z"/>
<path d="M3290 160 c0 -5 5 -10 10 -10 6 0 10 5 10 10 0 6 -4 10 -10 10 -5 0
-10 -4 -10 -10z"/>
<path d="M3346 159 c3 -5 9 -7 14 -4 4 3 11 0 13 -5 3 -6 4 -5 3 1 -1 7 -10
13 -19 15 -9 1 -15 -2 -11 -7z"/>
<path d="M3436 162 c-3 -5 1 -9 9 -9 8 0 12 4 9 9 -3 4 -7 8 -9 8 -2 0 -6 -4
-9 -8z"/>
<path d="M3390 156 c0 -3 9 -10 20 -16 11 -6 20 -8 20 -6 0 3 -9 10 -20 16
-11 6 -20 8 -20 6z"/>
<path d="M3500 156 c0 -2 11 -6 25 -8 13 -3 22 -1 19 3 -5 9 -44 13 -44 5z"/>
<path d="M3588 153 c7 -3 16 -2 19 1 4 3 -2 6 -13 5 -11 0 -14 -3 -6 -6z"/>
<path d="M3556 133 c-6 -14 -5 -15 5 -6 7 7 10 15 7 18 -3 3 -9 -2 -12 -12z"/>
<path d="M3695 141 c-3 -5 -2 -12 3 -15 5 -3 9 1 9 9 0 17 -3 19 -12 6z"/>
<path d="M3606 122 c-2 -4 4 -8 14 -8 10 0 16 4 14 8 -3 4 -9 8 -14 8 -5 0
-11 -4 -14 -8z"/>
</g>
</svg>
