<?xml version="1.0" encoding="UTF-8" standalone="no"?>
<svg
   xmlns:dc="http://purl.org/dc/elements/1.1/"
   xmlns:cc="http://creativecommons.org/ns#"
   xmlns:rdf="http://www.w3.org/1999/02/22-rdf-syntax-ns#"
   xmlns:svg="http://www.w3.org/2000/svg"
   xmlns="http://www.w3.org/2000/svg"
   version="1.1"
   id="svg80"
   width="64"
   height="64"
   viewBox="0 0 64 64">
  <metadata
     id="metadata86">
    <rdf:RDF>
      <cc:Work
         rdf:about="">
        <dc:format>image/svg+xml</dc:format>
        <dc:type
           rdf:resource="http://purl.org/dc/dcmitype/StillImage" />
        <dc:title></dc:title>
      </cc:Work>
    </rdf:RDF>
  </metadata>
  <defs
     id="defs84">
    <mask
       maskUnits="userSpaceOnUse"
       id="mask899">
      <ellipse
         style="display:inline;fill:#1a1a1a;fill-opacity:1;stroke:none;stroke-width:0.49775833;stroke-miterlimit:4;stroke-dasharray:none;stroke-opacity:1;opacity:1"
         id="ellipse901"
         cx="31.999813"
         cy="32.001625"
         rx="31.999813"
         ry="32.001625" />
    </mask>
    <filter
       style="color-interpolation-filters:sRGB;;opacity:1"
       id="filter1001">
      <feFlood
         flood-opacity="0.498039"
         flood-color="rgb(0,0,0)"
         result="flood"
         id="feFlood991" />
      <feComposite
         in="flood"
         in2="SourceGraphic"
         operator="in"
         result="composite1"
         id="feComposite993" />
      <feGaussianBlur
         in="composite1"
         stdDeviation="0.5"
         result="blur"
         id="feGaussianBlur995" />
      <feOffset
         dx="0.5"
         dy="0.5"
         result="offset"
         id="feOffset997" />
      <feComposite
         in="SourceGraphic"
         in2="offset"
         operator="over"
         result="composite2"
         id="feComposite999" />
    </filter>
  </defs>
  <g
     id="layer2"
     style="display:inline;opacity:1">
    <ellipse
       style="opacity:1;fill:#9f1919;fill-opacity:1;stroke:none;stroke-width:0.46909967;stroke-miterlimit:4;stroke-dasharray:none;stroke-opacity:1;filter:url(#filter1001)"
       id="path874"
       cx="32.414875"
       cy="32.266075"
       rx="30.15741"
       ry="30.159117" />
    <path
       id="path5059"
       d="M 32.404297 15.810547 L 24.220703 20.535156 L 24.220703 22.425781 L 10.503906 30.359375 L 10.490234 30.351562 L 10.480469 30.373047 L 10.474609 30.376953 L 10.478516 30.378906 L 8.859375 34.318359 L 32.404297 47.912109 L 32.404297 47.9375 L 32.425781 47.923828 L 55.970703 34.330078 L 54.662109 30.574219 L 54.652344 30.544922 L 54.630859 30.556641 L 40.587891 22.425781 L 40.587891 20.535156 L 32.404297 15.810547 z "
       style="opacity:1;fill:#e2e9ee;stroke:none;stroke-width:1.09111798px;stroke-linecap:butt;stroke-linejoin:miter;stroke-opacity:1" />
    <path
       style="opacity:1;fill:#c1cfda;stroke:none;stroke-width:1.09111798px;stroke-linecap:butt;stroke-linejoin:miter;stroke-opacity:1"
       d="m 20.620952,24.503937 11.7834,6.803149 0,2.267717 L 19.966318,26.3937 Z"
       id="path5061" />
    <path
       style="opacity:1;fill:none;stroke:none;stroke-width:1.09111798px;stroke-linecap:butt;stroke-linejoin:miter;stroke-opacity:1"
       d="m 32.404352,23.720944 -8.214244,-4.742496 0,4.948692 8.214244,4.330105 z"
       id="path5069" />
    <path
       style="opacity:1;fill:#000000;fill-opacity:1;stroke:none;stroke-width:1px;stroke-linecap:butt;stroke-linejoin:miter;stroke-opacity:1"
       d="M 31.988648,48.629942 52,68.763327 73.688337,51 56.995215,34.192394 Z"
       id="path882"
       mask="url(#mask899)"
       transform="matrix(0.94242453,0,0,0.94242453,2.2574659,2.1069575)" />
    <path
       style="opacity:1;fill:none;stroke:none;stroke-width:0.94242454px;stroke-linecap:butt;stroke-linejoin:miter;stroke-opacity:1"
       d="m 32.404353,48.052015 13.204642,13.204641 10.36667,-26.813546 7.539396,7.539397 z"
       id="path876" />
    <path
       style="opacity:1;fill:#c1cfda;stroke:none;stroke-width:1.09111798px;stroke-linecap:butt;stroke-linejoin:miter;stroke-opacity:1"
       d="m 16.038518,27.149606 -0.98195,2.456693 17.347784,10.015748 0,-3.023622 z"
       id="path5055" />
    <path
       style="opacity:1;fill:#a3afb9;stroke:none;stroke-width:1.09111798px;stroke-linecap:butt;stroke-linejoin:miter;stroke-opacity:1"
       d="M 32.404352,31.307086 44.187753,24.503937 44.842387,26.3937 32.404352,33.617647 Z"
       id="path5063" />
    <path
       style="opacity:1;fill:#c1cfda;stroke:none;stroke-width:1.09111798px;stroke-linecap:butt;stroke-linejoin:miter;stroke-opacity:1"
       d="m 32.404352,28.661417 0,-3.401575 -8.182917,-4.724409 0,3.401575 z"
       id="path5071" />
    <path
       style="opacity:1;fill:#a3afb9;stroke:none;stroke-width:1.09111798px;stroke-linecap:butt;stroke-linejoin:miter;stroke-opacity:1"
       d="m 32.404352,25.259842 8.182918,-4.724409 0,3.401574 -8.182918,4.732629 z"
       id="path5073" />
    <path
       style="opacity:1;fill:#a3afb9;stroke:none;stroke-width:1.09111798px;stroke-linecap:butt;stroke-linejoin:miter;stroke-opacity:1"
       d="m 32.404352,36.598425 16.365835,-9.448819 0.98195,2.456693 -17.347785,10.015748 z"
       id="path5057" />
    <path
       style="opacity:1;fill:#c1cfda;stroke:none;stroke-width:1.09111798px;stroke-linecap:butt;stroke-linejoin:miter;stroke-opacity:1;fill-opacity:1"
       d="M 32.404352,47.937008 55.971154,34.330708 54.652645,30.545845 32.404352,43.023622 Z"
       id="path5051" />
    <path
       id="path5049"
       d="m 10.490234,30.351562 -1.630859,3.966797 23.544922,13.59375 v 0.02539 l 0.02148,-0.01367 23.544922,-13.59375 -1.318359,-3.785156 -22.248047,12.478516 z"
       style="display:inline;opacity:1;fill:#c1cfda;stroke:none;stroke-width:1.09111798px;stroke-linecap:butt;stroke-linejoin:miter;stroke-opacity:1" />
    <path
       style="display:inline;opacity:1;fill:#a3afb9;fill-opacity:1;stroke:none;stroke-width:1.09111798px;stroke-linecap:butt;stroke-linejoin:miter;stroke-opacity:1"
       d="M 32.404352,47.937008 55.971154,34.330708 54.652645,30.545845 32.404352,43.023622 Z"
       id="path5051-6" />
  </g>
</svg>
